<?xml version="1.0" encoding="utf-8"?>
<!-- Generator: Adobe Illustrator 27.5.0, SVG Export Plug-In . SVG Version: 6.00 Build 0)  -->
<svg version="1.1" xmlns="http://www.w3.org/2000/svg" xmlns:xlink="http://www.w3.org/1999/xlink" x="0px" y="0px"
	 viewBox="0 0 500 500" style="enable-background:new 0 0 500 500;" xml:space="preserve">
<g id="Background_Complete">
	<g>
		<rect y="382.398" style="fill:#EBEBEB;" width="500" height="0.25"/>
		<rect x="416.779" y="398.494" style="fill:#EBEBEB;" width="33.122" height="0.25"/>
		<rect x="322.527" y="401.208" style="fill:#EBEBEB;" width="8.693" height="0.25"/>
		<rect x="396.586" y="389.208" style="fill:#EBEBEB;" width="19.192" height="0.25"/>
		<rect x="52.459" y="390.888" style="fill:#EBEBEB;" width="43.193" height="0.25"/>
		<rect x="104.556" y="390.888" style="fill:#EBEBEB;" width="6.333" height="0.25"/>
		<rect x="131.471" y="395.111" style="fill:#EBEBEB;" width="93.676" height="0.25"/>
		<path style="fill:#EBEBEB;" d="M237.014,337.8H43.915c-3.147,0-5.708-2.561-5.708-5.708V60.66c0-3.147,2.561-5.708,5.708-5.708
			h193.099c3.146,0,5.707,2.561,5.707,5.708v271.432C242.721,335.239,240.16,337.8,237.014,337.8z M43.915,55.203
			c-3.01,0-5.458,2.448-5.458,5.458v271.432c0,3.01,2.448,5.458,5.458,5.458h193.099c3.009,0,5.457-2.448,5.457-5.458V60.66
			c0-3.009-2.448-5.458-5.457-5.458H43.915z"/>
		<path style="fill:#EBEBEB;" d="M453.31,337.8H260.212c-3.147,0-5.707-2.561-5.707-5.708V60.66c0-3.147,2.561-5.708,5.707-5.708
			H453.31c3.148,0,5.708,2.561,5.708,5.708v271.432C459.019,335.239,456.458,337.8,453.31,337.8z M260.212,55.203
			c-3.009,0-5.457,2.448-5.457,5.458v271.432c0,3.01,2.448,5.458,5.457,5.458H453.31c3.01,0,5.458-2.448,5.458-5.458V60.66
			c0-3.009-2.448-5.458-5.458-5.458H260.212z"/>
	</g>
	<g>
		<rect x="339.859" y="235.053" style="fill:#F5F5F5;" width="22.297" height="9.486"/>
		<rect x="301.729" y="164.827" style="fill:#F5F5F5;" width="22.298" height="9.486"/>
		<rect x="285.896" y="235.053" style="fill:#F5F5F5;" width="22.297" height="9.486"/>
		<rect x="353.35" y="248.26" style="fill:#F5F5F5;" width="22.298" height="9.486"/>
		<rect x="326.369" y="248.26" style="fill:#F5F5F5;" width="22.297" height="9.486"/>
		<rect x="299.387" y="248.26" style="fill:#F5F5F5;" width="22.297" height="9.486"/>
		<rect x="272.405" y="248.26" style="fill:#F5F5F5;" width="22.298" height="9.486"/>
		<rect x="396.843" y="261.466" style="fill:#F5F5F5;" width="22.297" height="9.486"/>
		<rect x="369.861" y="261.466" style="fill:#F5F5F5;" width="22.298" height="9.486"/>
		<rect x="312.878" y="261.466" style="fill:#F5F5F5;" width="22.298" height="9.486"/>
		<rect x="205.241" y="275.828" style="fill:#F5F5F5;" width="22.297" height="9.486"/>
		<rect x="258.915" y="261.466" style="fill:#F5F5F5;" width="22.297" height="9.486"/>
		<rect x="383.352" y="274.672" style="fill:#F5F5F5;" width="22.297" height="9.486"/>
		<rect x="326.369" y="274.672" style="fill:#F5F5F5;" width="22.297" height="9.486"/>
		<rect x="299.387" y="274.672" style="fill:#F5F5F5;" width="22.297" height="9.486"/>
		<rect x="272.405" y="274.672" style="fill:#F5F5F5;" width="22.298" height="9.486"/>
		<rect x="167.161" y="100.501" style="fill:#F5F5F5;" width="22.298" height="9.486"/>
		<rect x="140.179" y="100.501" style="fill:#F5F5F5;" width="22.298" height="9.486"/>
		<rect x="180.651" y="113.707" style="fill:#F5F5F5;" width="22.297" height="9.486"/>
		<rect x="153.67" y="113.707" style="fill:#F5F5F5;" width="22.297" height="9.486"/>
		<rect x="99.707" y="113.707" style="fill:#F5F5F5;" width="22.297" height="9.486"/>
		<rect x="72.726" y="113.707" style="fill:#F5F5F5;" width="22.297" height="9.486"/>
		<rect x="140.179" y="126.914" style="fill:#F5F5F5;" width="22.298" height="9.486"/>
		<rect x="385.793" y="177.802" style="fill:#F5F5F5;" width="22.298" height="9.486"/>
		<rect x="338.811" y="177.802" style="fill:#F5F5F5;" width="22.298" height="9.486"/>
		<rect x="399.284" y="191.008" style="fill:#F5F5F5;" width="22.297" height="9.486"/>
		<rect x="372.302" y="191.008" style="fill:#F5F5F5;" width="22.297" height="9.486"/>
		<rect x="142.083" y="164.474" style="fill:#F5F5F5;" width="22.298" height="9.486"/>
		<rect x="85.094" y="164.474" style="fill:#F5F5F5;" width="22.298" height="9.486"/>
		<rect x="155.574" y="177.68" style="fill:#F5F5F5;" width="22.297" height="9.486"/>
		<rect x="118.586" y="177.68" style="fill:#F5F5F5;" width="22.297" height="9.486"/>
		<rect x="385.793" y="204.215" style="fill:#F5F5F5;" width="22.298" height="9.486"/>
		<rect x="338.811" y="204.215" style="fill:#F5F5F5;" width="22.298" height="9.486"/>
		<rect x="86.216" y="126.914" style="fill:#F5F5F5;" width="22.297" height="9.486"/>
		<rect x="402.136" y="100.857" style="fill:#F5F5F5;" width="22.297" height="9.486"/>
		<rect x="375.155" y="100.857" style="fill:#F5F5F5;" width="22.297" height="9.486"/>
		<rect x="388.646" y="114.063" style="fill:#F5F5F5;" width="22.297" height="9.486"/>
		<rect x="281.268" y="101.066" style="fill:#F5F5F5;" width="22.298" height="9.486"/>
		<rect x="254.286" y="101.066" style="fill:#F5F5F5;" width="22.297" height="9.486"/>
		<rect x="294.758" y="114.273" style="fill:#F5F5F5;" width="22.298" height="9.486"/>
		<rect x="352.603" y="137.128" style="fill:#F5F5F5;" width="22.297" height="9.486"/>
		<rect x="240.796" y="114.273" style="fill:#F5F5F5;" width="22.297" height="9.486"/>
		<rect x="308.249" y="127.479" style="fill:#F5F5F5;" width="22.297" height="9.486"/>
		<rect x="281.268" y="127.479" style="fill:#F5F5F5;" width="22.298" height="9.486"/>
		<rect x="254.286" y="127.479" style="fill:#F5F5F5;" width="22.297" height="9.486"/>
		<rect x="294.758" y="140.686" style="fill:#F5F5F5;" width="22.298" height="9.486"/>
		<rect x="267.777" y="140.686" style="fill:#F5F5F5;" width="22.297" height="9.486"/>
		<rect x="113.404" y="231.466" style="fill:#F5F5F5;" width="22.297" height="9.486"/>
		<rect x="86.422" y="231.466" style="fill:#F5F5F5;" width="22.297" height="9.486"/>
		<rect x="190.864" y="232.671" style="fill:#F5F5F5;" width="22.298" height="9.486"/>
		<rect x="126.895" y="244.672" style="fill:#F5F5F5;" width="22.297" height="9.486"/>
		<rect x="99.913" y="244.672" style="fill:#F5F5F5;" width="22.297" height="9.486"/>
		<rect x="204.355" y="245.878" style="fill:#F5F5F5;" width="22.297" height="9.486"/>
		<rect x="177.373" y="245.878" style="fill:#F5F5F5;" width="22.297" height="9.486"/>
		<rect x="248.971" y="203.18" style="fill:#F5F5F5;" width="22.298" height="9.486"/>
		<rect x="109.078" y="196.894" style="fill:#F5F5F5;" width="22.298" height="9.486"/>
		<rect x="218.561" y="156.344" style="fill:#F5F5F5;" width="22.298" height="9.486"/>
		<rect x="235.481" y="189.974" style="fill:#F5F5F5;" width="22.297" height="9.486"/>
		<rect x="262.462" y="189.974" style="fill:#F5F5F5;" width="22.297" height="9.486"/>
		<rect x="363.752" y="373.273" style="fill:#F5F5F5;" width="22.298" height="9.486"/>
		<rect x="377.243" y="360.066" style="fill:#F5F5F5;" width="22.297" height="9.486"/>
		<rect x="113.404" y="257.879" style="fill:#F5F5F5;" width="22.297" height="9.486"/>
		<rect x="86.422" y="257.879" style="fill:#F5F5F5;" width="22.297" height="9.486"/>
		<rect x="126.895" y="271.085" style="fill:#F5F5F5;" width="22.297" height="9.486"/>
		<rect x="99.913" y="271.085" style="fill:#F5F5F5;" width="22.297" height="9.486"/>
		<rect x="155.746" y="307.619" style="fill:#F5F5F5;" width="22.297" height="9.486"/>
		<rect x="128.764" y="307.619" style="fill:#F5F5F5;" width="22.297" height="9.486"/>
		<rect x="101.783" y="307.619" style="fill:#F5F5F5;" width="22.297" height="9.486"/>
		<rect x="74.801" y="307.619" style="fill:#F5F5F5;" width="22.297" height="9.486"/>
		<rect x="169.237" y="320.826" style="fill:#F5F5F5;" width="22.298" height="9.486"/>
		<rect x="142.255" y="320.826" style="fill:#F5F5F5;" width="22.297" height="9.486"/>
		<rect x="88.292" y="320.826" style="fill:#F5F5F5;" width="22.297" height="9.486"/>
		<rect x="182.728" y="334.032" style="fill:#F5F5F5;" width="22.297" height="9.486"/>
		<rect x="155.746" y="334.032" style="fill:#F5F5F5;" width="22.297" height="9.486"/>
		<rect x="128.764" y="334.032" style="fill:#F5F5F5;" width="22.297" height="9.486"/>
		<rect x="169.237" y="347.239" style="fill:#F5F5F5;" width="22.298" height="9.486"/>
		<rect x="142.255" y="347.239" style="fill:#F5F5F5;" width="22.297" height="9.486"/>
		<rect x="115.274" y="347.239" style="fill:#F5F5F5;" width="22.297" height="9.486"/>
		<rect x="338.283" y="307.01" style="fill:#F5F5F5;" width="22.297" height="9.486"/>
		<rect x="281.299" y="307.01" style="fill:#F5F5F5;" width="22.297" height="9.486"/>
		<rect x="254.318" y="307.01" style="fill:#F5F5F5;" width="22.297" height="9.486"/>
		<rect x="351.773" y="320.216" style="fill:#F5F5F5;" width="22.298" height="9.486"/>
		<rect x="294.79" y="320.216" style="fill:#F5F5F5;" width="22.297" height="9.486"/>
		<rect x="267.809" y="320.216" style="fill:#F5F5F5;" width="22.298" height="9.486"/>
		<rect x="240.827" y="320.216" style="fill:#F5F5F5;" width="22.297" height="9.486"/>
		<rect x="365.264" y="333.423" style="fill:#F5F5F5;" width="22.297" height="9.486"/>
		<rect x="338.283" y="333.423" style="fill:#F5F5F5;" width="22.297" height="9.486"/>
		<rect x="281.299" y="372.448" style="fill:#F5F5F5;" width="22.297" height="9.486"/>
		<rect x="254.318" y="372.448" style="fill:#F5F5F5;" width="22.297" height="9.486"/>
		<rect x="321.772" y="346.629" style="fill:#F5F5F5;" width="22.298" height="9.486"/>
		<rect x="294.79" y="346.629" style="fill:#F5F5F5;" width="22.297" height="9.486"/>
		<rect x="267.809" y="346.629" style="fill:#F5F5F5;" width="22.298" height="9.486"/>
		<rect x="240.827" y="346.629" style="fill:#F5F5F5;" width="22.297" height="9.486"/>
		<rect x="74.801" y="359.652" style="fill:#F5F5F5;" width="22.297" height="9.486"/>
		<rect x="88.292" y="372.859" style="fill:#F5F5F5;" width="22.297" height="9.486"/>
		<rect x="214.293" y="359.043" style="fill:#F5F5F5;" width="22.297" height="9.486"/>
		<rect x="200.802" y="372.249" style="fill:#F5F5F5;" width="22.297" height="9.486"/>
	</g>
</g>
<g id="Background_Simple" style="display:none;">
	<g style="display:inline;">
		<path style="fill:#407BFF;" d="M94.549,115.634c27.919-59.449,127.059-51.062,165.317-9.255
			c38.258,41.806,50.696,68.599,85.208,52.983c34.512-15.616,78.518-11.44,81.042,38.164s-37.913,108.263-102.09,125.615
			c-64.177,17.352-64.161,78.759-149.1,66.368c-46.31-6.756-47.365-56.86-40.825-98.301S62.171,184.577,94.549,115.634z"/>
		<path style="opacity:0.9;fill:#FFFFFF;" d="M94.549,115.634c27.919-59.449,127.059-51.062,165.317-9.255
			c38.258,41.806,50.696,68.599,85.208,52.983c34.512-15.616,78.518-11.44,81.042,38.164s-37.913,108.263-102.09,125.615
			c-64.177,17.352-64.161,78.759-149.1,66.368c-46.31-6.756-47.365-56.86-40.825-98.301S62.171,184.577,94.549,115.634z"/>
	</g>
</g>
<g id="Shadow_1_">
	<ellipse id="_x3C_Path_x3E__359_" style="fill:#F5F5F5;" cx="250" cy="416.238" rx="193.889" ry="11.323"/>
</g>
<g id="Text">
	<g>
		<g>
			<path style="fill:#407BFF;" d="M159.672,146.121l-2.151,10.89h-7.26l2.196-11.204l-8.067-20.167h7.26l5.602,13.982l11.249-13.982
				h7.484L159.672,146.121z"/>
			<path style="fill:#407BFF;" d="M172.4,143.925c0-10.711,7.843-18.822,19.405-18.822c9.546,0,15.282,5.557,15.282,13.623
				c0,10.711-7.843,18.822-19.405,18.822C178.137,157.548,172.4,151.991,172.4,143.925z M199.737,139.129
				c0-4.661-3.047-7.842-8.56-7.842c-7.081,0-11.428,5.602-11.428,12.234c0,4.661,3.047,7.843,8.56,7.843
				C195.391,151.364,199.737,145.762,199.737,139.129z"/>
			<path style="fill:#407BFF;" d="M211.391,146.569c0-1.076,0.135-2.196,0.358-3.361l3.496-17.567h7.305l-3.496,17.433
				c-0.179,0.986-0.269,1.837-0.269,2.644c0,3.81,2.151,5.647,6.05,5.647c4.392,0,6.946-2.42,8.156-8.291l3.496-17.433h7.125
				l-3.54,17.881c-1.882,9.277-7.215,14.027-16.044,14.027C216.141,157.548,211.391,153.336,211.391,146.569z"/>
			<path style="fill:#407BFF;" d="M258.224,143.925c0-10.711,7.843-18.822,19.495-18.822c5.557,0,10.083,1.972,12.324,5.557
				l-5.244,4.302c-1.613-2.376-4.123-3.675-7.574-3.675c-7.081,0-11.652,5.422-11.652,12.189c0,4.751,3.137,7.888,8.784,7.888
				c3.182,0,6.005-1.121,8.336-3.63l4.302,4.392c-3.316,3.854-7.887,5.422-13.265,5.422
				C264.139,157.548,258.224,151.991,258.224,143.925z"/>
			<path style="fill:#407BFF;" d="M311.779,150.288h-14.61l-4.078,6.722h-7.753l20.301-31.371h7.17l7.708,31.371h-7.26
				L311.779,150.288z M310.569,144.776l-2.644-12.1l-7.395,12.1H310.569z"/>
			<path style="fill:#407BFF;" d="M358.836,125.64l-6.274,31.371h-5.96l-11.697-19.629l-3.943,19.629h-7.17l6.274-31.371h6.005
				l11.697,19.674l3.899-19.674H358.836z"/>
		</g>
		<path style="fill:#407BFF;" d="M179.012,163.278h13.131c9.68,0,15.461,5.064,15.461,13.086c0,11.069-7.933,18.285-19.539,18.285
			h-15.327L179.012,163.278z M188.288,188.688c7.529,0,11.966-5.109,11.966-11.921c0-4.661-3.003-7.529-8.918-7.529h-6.23
			l-3.899,19.45H188.288z"/>
		<text transform="matrix(1 0 0 1 200.6641 113.186)" style="fill:#263238; font-family:'Satisfy-Regular'; font-size:41.6075px;">Believe</text>
		<g>
			<path style="fill:#407BFF;" d="M245.02,172.8c0,0-0.15,2.86-0.81,2.79c-0.66-0.06-0.6-2.11-0.6-2.11s-0.39,3.5-0.89,3.68
				c-0.5,0.18-0.91-2.8-0.91-2.8s-0.17,2.95-0.44,3.03c-0.26,0.08-0.51-2.57-0.51-2.57s-0.48,3.67-0.81,3.67
				c-0.32,0-0.33-3.11-0.57-3c-0.2,0.1-0.74,4.46-0.94,4.46c-0.03,0-0.06-0.14-0.07-0.47c-0.06-2.17-0.42-3.29-0.42-3.29
				c0.02,0.19,0.03,0.38,0.03,0.58c0,6.63-4.35,12.23-11.43,12.23c-5.51,0-8.56-3.18-8.56-7.84c0-4.631,2.227-8.792,5.972-10.88
				c1.648-0.84,3.271-1.101,4.021-1.176c-0.398,0.028-0.915,0.056-0.853,0.011c0.554-0.113,1.122-0.201,1.716-0.234l1.455-4.878
				c-1.257-0.146-3.8-0.044-5.35,0.366c-2.07,0.54,1-0.64,2.68-0.89c0,0-2.53-0.34-6.83,1.28c-6.3,3.05-10.16,9.29-10.16,16.8
				c0,8.07,5.74,13.63,15.28,13.63c11.57,0,19.41-8.12,19.41-18.83C245.43,175.11,245.29,173.92,245.02,172.8z"/>
		</g>
	</g>
</g>
<g id="Plant">
	<g>
		<path style="fill:#263238;" d="M129.655,394.758c0,0,1.265-9.267,7.19-10.281c5.926-1.014,4.139-5.494,5.683-7.229
			c1.544-1.734,5.576,3.382,2.122,8.34c-3.454,4.957-0.631,3.399-2.122,8.008C141.037,398.205,129.114,402.439,129.655,394.758z"/>
		<path style="opacity:0.2;fill:#FFFFFF;enable-background:new    ;" d="M129.655,394.758c0,0,1.265-9.267,7.19-10.281
			c5.926-1.014,4.139-5.494,5.683-7.229c1.544-1.734,5.576,3.382,2.122,8.34c-3.454,4.957-0.631,3.399-2.122,8.008
			C141.037,398.205,129.114,402.439,129.655,394.758z"/>
		
			<path style="fill:none;stroke:#263238;stroke-width:0.9024;stroke-linecap:round;stroke-linejoin:round;stroke-miterlimit:10;" d="
			M130.672,400.214c0,0,2.966-10.047-1.864-24.87c-4.829-14.822-14.63-19.284-9.671-37.267c4.959-17.983,11.795-31.343,5.471-42.5"
			/>
		<path style="fill:#263238;" d="M133.323,398.922c0,0,3.83-5.773-1.698-8.74c-5.528-2.967-6.636-0.579-10.057-2.712
			c-3.421-2.134-6.013-7.305-6.596-3.997c-0.583,3.308,3.368,5.196,1.97,6.709C115.546,391.696,126.241,401.524,133.323,398.922z"/>
		<g>
			<path style="fill:#263238;" d="M126.985,300.074c0,0,1.861-11.796-6.554-10.666C112.016,290.538,122.954,299.505,126.985,300.074
				z"/>
			<path style="fill:#263238;" d="M121.111,309.866c0,0-4.154-9.773-9.751-6.658C105.763,306.323,115.215,311.019,121.111,309.866z"
				/>
			<path style="fill:#263238;" d="M131.342,309.105c0,0-2.219-7.978,4.064-9.167C141.689,298.75,140.042,306.342,131.342,309.105z"
				/>
			<path style="fill:#263238;" d="M129.843,326.36c0,0,7.239-8.928,11.199-3.806C145.001,327.676,135.759,330.383,129.843,326.36z"
				/>
			<path style="fill:#263238;" d="M114.643,327.461c0,0-3.634-12.278-9.833-7.232C98.61,325.276,108.888,329.684,114.643,327.461z"
				/>
			<path style="fill:#263238;" d="M111.548,346.391c0,0,2.986-13.49-6.164-10.535C96.234,338.811,104.424,344.395,111.548,346.391z"
				/>
			<path style="fill:#263238;" d="M126.681,348.567c0,0,6.404-10.626,12.943-8.652C146.161,341.889,142.723,351.976,126.681,348.567
				z"/>
			<path style="fill:#263238;" d="M122.858,370.421c0,0-9.193-13.892-14.372-7.861C103.305,368.59,114.367,374.542,122.858,370.421z
				"/>
			<path style="fill:#263238;" d="M132.525,367.947c0,0-3.678-11.339,3.158-11.492C142.52,356.301,141.923,363.701,132.525,367.947z
				"/>
			<g style="opacity:0.2;enable-background:new    ;">
				<path style="fill:#FFFFFF;" d="M126.985,300.074c0,0,1.861-11.796-6.554-10.666
					C112.016,290.538,122.954,299.505,126.985,300.074z"/>
				<path style="fill:#FFFFFF;" d="M121.111,309.866c0,0-4.154-9.773-9.751-6.658C105.763,306.323,115.215,311.019,121.111,309.866z
					"/>
				<path style="fill:#FFFFFF;" d="M131.342,309.105c0,0-2.219-7.978,4.064-9.167C141.689,298.75,140.042,306.342,131.342,309.105z"
					/>
				<path style="fill:#FFFFFF;" d="M129.843,326.36c0,0,7.239-8.928,11.199-3.806C145.001,327.676,135.759,330.383,129.843,326.36z"
					/>
				<path style="fill:#FFFFFF;" d="M114.643,327.461c0,0-3.634-12.278-9.833-7.232C98.61,325.276,108.888,329.684,114.643,327.461z"
					/>
				<path style="fill:#FFFFFF;" d="M111.548,346.391c0,0,2.986-13.49-6.164-10.535C96.234,338.811,104.424,344.395,111.548,346.391z
					"/>
				<path style="fill:#FFFFFF;" d="M126.681,348.567c0,0,6.404-10.626,12.943-8.652
					C146.161,341.889,142.723,351.976,126.681,348.567z"/>
				<path style="fill:#FFFFFF;" d="M122.858,370.421c0,0-9.193-13.892-14.372-7.861C103.305,368.59,114.367,374.542,122.858,370.421
					z"/>
				<path style="fill:#FFFFFF;" d="M132.525,367.947c0,0-3.678-11.339,3.158-11.492C142.52,356.301,141.923,363.701,132.525,367.947
					z"/>
			</g>
		</g>
		
			<path style="fill:none;stroke:#263238;stroke-width:0.9024;stroke-linecap:round;stroke-linejoin:round;stroke-miterlimit:10;" d="
			M133.008,306.1c0,0-2.732,5.941-7.213,9.505c0,0-4.286-5.761-7.079-6.873"/>
		
			<path style="fill:none;stroke:#263238;stroke-width:0.9024;stroke-linecap:round;stroke-linejoin:round;stroke-miterlimit:10;" d="
			M136.222,324.551c0,0-9.212,1.197-15.573,7.862c0,0-5.139-6.171-10.93-8.422"/>
		
			<path style="fill:none;stroke:#263238;stroke-width:0.9024;stroke-linecap:round;stroke-linejoin:round;stroke-miterlimit:10;" d="
			M107.808,340.842c0,0,5.619,9.713,11.299,12.923c0,0,9.427-7.73,17.047-9.126"/>
		
			<path style="fill:none;stroke:#263238;stroke-width:0.9024;stroke-linecap:round;stroke-linejoin:round;stroke-miterlimit:10;" d="
			M135.525,360.353c0,0-3.508,10.878-6.988,13.697c0,0-4.41-4.474-12.547-5.539"/>
		<path style="fill:#263238;" d="M132.735,397.545c0,0,3.285-5.228,6.994-5.972c3.709-0.745,5.308-5.017,6.677-2.447
			C147.775,391.696,144,400.215,132.735,397.545z"/>
		<g>
			<polygon style="fill:#407BFF;" points="149.781,418.066 113.916,418.066 111.516,395.944 152.181,395.944 			"/>
			<polygon style="fill:#407BFF;" points="153.018,400.135 110.678,400.135 110.137,395.448 153.56,395.448 			"/>
			<polygon style="opacity:0.3;fill:#FFFFFF;" points="153.018,400.135 110.678,400.135 110.137,395.448 153.56,395.448 			"/>
		</g>
	</g>
</g>
<g id="Table">
	<g>
		<g>
			<path style="fill:#407BFF;" d="M214.788,325.461c1.345,1.698,8.466,0.659,9.752-1.22l-1.236-0.989c0,0-6.978,3.556-9.992,0.245
				L214.788,325.461z"/>
			
				<rect x="217.136" y="305.008" transform="matrix(-1 -1.224647e-16 1.224647e-16 -1 459.8262 639.7946)" style="fill:#407BFF;" width="25.554" height="29.778"/>
			
				<rect x="217.136" y="305.008" transform="matrix(-1 -1.224647e-16 1.224647e-16 -1 459.8262 639.7946)" style="opacity:0.6;fill:#FFFFFF;" width="25.554" height="29.778"/>
			
				<rect x="216.199" y="304.459" transform="matrix(-1 -1.224647e-16 1.224647e-16 -1 459.8262 610.9318)" style="fill:#407BFF;" width="27.429" height="2.013"/>
			
				<rect x="216.199" y="304.459" transform="matrix(-1 -1.224647e-16 1.224647e-16 -1 459.8262 610.9318)" style="opacity:0.7;fill:#FFFFFF;" width="27.429" height="2.013"/>
			<path style="fill:#407BFF;" d="M240.835,304.459L240.835,304.459c-1.593,0-2.885,1.292-2.885,2.885v17.271
				c0,0.54-0.438,0.978-0.978,0.978l0,0c-0.54,0-0.978-0.438-0.978-0.978v-17.393c0-0.793-0.642-1.435-1.435-1.435l0,0
				c-0.792,0-1.435,0.642-1.435,1.435v8.002c0,0.54-0.438,0.978-0.978,0.978h-0.13c-0.54,0-0.978-0.438-0.978-0.978v-7.402
				c0-1.857-1.505-3.362-3.362-3.362l0,0H240.835z"/>
			
				<rect x="217.136" y="312.539" transform="matrix(-1 -1.224647e-16 1.224647e-16 -1 445.696 640.8379)" style="opacity:0.2;" width="11.424" height="15.761"/>
			<path style="fill:#407BFF;" d="M221.958,305.036c0.388,0.296,0.441,0.856,0.112,1.216c-2.124,2.323-8.862,10.501-7.283,19.209
				l-1.476-1.964c0,0-1.33-9.25,7.542-18.382C221.146,304.815,221.625,304.782,221.958,305.036L221.958,305.036z"/>
			<path style="opacity:0.2;fill:#FFFFFF;" d="M221.958,305.036c0.388,0.296,0.441,0.856,0.112,1.216
				c-2.124,2.323-8.862,10.501-7.283,19.209l-1.476-1.964c0,0-1.33-9.25,7.542-18.382
				C221.146,304.815,221.625,304.782,221.958,305.036L221.958,305.036z"/>
		</g>
		<polygon style="fill:#263238;" points="208.246,334.786 208.246,418.066 213.286,418.066 213.286,344.456 266.626,344.456 
			266.626,418.066 271.666,418.066 271.666,334.786 		"/>
		<polygon style="opacity:0.5;fill:#FFFFFF;" points="208.246,334.786 208.246,418.066 213.286,418.066 213.286,344.456 
			266.626,344.456 266.626,418.066 271.666,418.066 271.666,334.786 		"/>
		<polygon style="fill:#263238;" points="194.237,334.786 194.237,418.066 199.277,418.066 199.277,344.456 252.617,344.456 
			252.617,418.066 257.657,418.066 257.657,334.786 		"/>
		<polygon style="opacity:0.7;fill:#FFFFFF;" points="194.237,334.786 194.237,418.066 199.277,418.066 199.277,344.456 
			252.617,344.456 252.617,418.066 257.657,418.066 257.657,334.786 		"/>
		<g>
			
				<rect x="202.165" y="331.271" transform="matrix(-1 -1.224647e-16 1.224647e-16 -1 431.4071 666.1629)" style="fill:#407BFF;" width="27.077" height="3.621"/>
			
				<rect x="201.718" y="331.939" transform="matrix(-1 -1.224647e-16 1.224647e-16 -1 431.4072 666.1629)" style="fill:#407BFF;" width="27.972" height="2.284"/>
			
				<rect x="201.718" y="331.939" transform="matrix(-1 -1.224647e-16 1.224647e-16 -1 431.4072 666.1629)" style="opacity:0.2;fill:#FFFFFF;" width="27.972" height="2.284"/>
		</g>
		<g>
			
				<rect x="257.657" y="308.846" transform="matrix(-0.9858 -0.1679 0.1679 -0.9858 459.1257 677.8174)" style="fill:#263238;" width="1.136" height="21.297"/>
			
				<rect x="254.154" y="311.131" transform="matrix(-0.9991 0.043 -0.043 -0.9991 523.0373 632.3158)" style="fill:#263238;" width="1.136" height="21.297"/>
			<polygon style="fill:#407BFF;" points="247.88,334.786 258.364,334.786 259.364,320.969 246.88,320.969 			"/>
		</g>
		<g>
			<path style="fill:#263238;" d="M284.585,409.742c-1.345,1.698-8.466,0.659-9.752-1.22l1.236-0.989c0,0,6.978,3.556,9.992,0.245
				L284.585,409.742z"/>
			<rect x="256.682" y="388.288" style="fill:#407BFF;" width="25.554" height="29.778"/>
			<rect x="256.682" y="388.288" style="opacity:0.6;fill:#FFFFFF;" width="25.554" height="29.778"/>
			<rect x="256.086" y="388.74" style="fill:#407BFF;" width="26.67" height="2.435"/>
			<rect x="256.086" y="388.74" style="opacity:0.7;fill:#FFFFFF;" width="26.67" height="2.435"/>
			<rect x="256.804" y="395.819" style="opacity:0.2;" width="16.821" height="15.761"/>
			<path style="fill:#263238;" d="M277.414,389.317c-0.388,0.296-0.441,0.856-0.112,1.216c2.124,2.323,8.862,10.501,7.283,19.209
				l1.476-1.964c0,0,1.33-9.25-7.542-18.382C278.226,389.095,277.747,389.063,277.414,389.317L277.414,389.317z"/>
			<path style="opacity:0.2;fill:#FFFFFF;" d="M277.414,389.317c-0.388,0.296-0.441,0.856-0.112,1.216
				c2.124,2.323,8.862,10.501,7.283,19.209l1.476-1.964c0,0,1.33-9.25-7.542-18.382
				C278.226,389.095,277.747,389.063,277.414,389.317L277.414,389.317z"/>
			<g>
				<rect x="255.921" y="384.743" style="fill:#263238;" width="27.077" height="3.621"/>
				<rect x="255.473" y="385.411" style="fill:#263238;" width="27.972" height="2.284"/>
				<rect x="255.473" y="385.411" style="opacity:0.2;fill:#FFFFFF;" width="27.972" height="2.284"/>
			</g>
		</g>
	</g>
</g>
<g id="Character">
	<g>
		<g>
			<g>
				<polygon style="fill:#263238;" points="362.901,418.066 371.779,418.066 342.911,204.936 334.033,204.936 				"/>
				<polygon style="opacity:0.4;fill:#FFFFFF;" points="362.901,418.066 371.779,418.066 342.911,204.936 334.033,204.936 				"/>
				<g>
					<path style="fill:#263238;" d="M344.342,236.528h28.222c0.67,0,1.289-0.41,1.625-1.077l1.793-3.549h-35.058l1.793,3.549
						C343.053,236.118,343.672,236.528,344.342,236.528z"/>
					<path style="opacity:0.4;fill:#FFFFFF;" d="M344.342,236.528h28.222c0.67,0,1.289-0.41,1.625-1.077l1.793-3.549h-35.058
						l1.793,3.549C343.053,236.118,343.672,236.528,344.342,236.528z"/>
					<path style="fill:#263238;" d="M341.34,233.591h34.227c0.98,0,1.774-0.794,1.774-1.774v-0.26c0-0.98-0.794-1.774-1.774-1.774
						H341.34c-0.98,0-1.774,0.794-1.774,1.774v0.26C339.565,232.797,340.36,233.591,341.34,233.591z"/>
					<path style="opacity:0.1;fill:#FFFFFF;" d="M341.34,233.591h34.227c0.98,0,1.774-0.794,1.774-1.774v-0.26
						c0-0.98-0.794-1.774-1.774-1.774H341.34c-0.98,0-1.774,0.794-1.774,1.774v0.26C339.565,232.797,340.36,233.591,341.34,233.591z
						"/>
				</g>
				<g>
					<path style="fill:#263238;" d="M349.49,266.992h28.222c0.67,0,1.289-0.41,1.625-1.077l1.793-3.549h-35.058l1.793,3.549
						C348.201,266.582,348.82,266.992,349.49,266.992z"/>
					<path style="opacity:0.4;fill:#FFFFFF;" d="M349.49,266.992h28.222c0.67,0,1.289-0.41,1.625-1.077l1.793-3.549h-35.058
						l1.793,3.549C348.201,266.582,348.82,266.992,349.49,266.992z"/>
					<path style="fill:#263238;" d="M346.487,264.055h34.227c0.98,0,1.774-0.794,1.774-1.774v-0.26c0-0.98-0.794-1.774-1.774-1.774
						h-34.227c-0.98,0-1.774,0.794-1.774,1.774v0.26C344.713,263.26,345.507,264.055,346.487,264.055z"/>
					<path style="opacity:0.1;fill:#FFFFFF;" d="M346.487,264.055h34.227c0.98,0,1.774-0.794,1.774-1.774v-0.26
						c0-0.98-0.794-1.774-1.774-1.774h-34.227c-0.98,0-1.774,0.794-1.774,1.774v0.26
						C344.713,263.26,345.507,264.055,346.487,264.055z"/>
				</g>
				<g>
					<path style="fill:#263238;" d="M354.637,307.321h28.222c0.669,0,1.289-0.41,1.625-1.077l1.793-3.549h-35.058l1.793,3.549
						C353.349,306.911,353.968,307.321,354.637,307.321z"/>
					<path style="opacity:0.4;fill:#FFFFFF;" d="M354.637,307.321h28.222c0.669,0,1.289-0.41,1.625-1.077l1.793-3.549h-35.058
						l1.793,3.549C353.349,306.911,353.968,307.321,354.637,307.321z"/>
					<path style="fill:#263238;" d="M351.635,304.385h34.227c0.98,0,1.774-0.794,1.774-1.774v-0.26c0-0.98-0.794-1.774-1.774-1.774
						h-34.227c-0.98,0-1.774,0.794-1.774,1.774v0.26C349.86,303.59,350.655,304.385,351.635,304.385z"/>
					<path style="opacity:0.1;fill:#FFFFFF;" d="M351.635,304.385h34.227c0.98,0,1.774-0.794,1.774-1.774v-0.26
						c0-0.98-0.794-1.774-1.774-1.774h-34.227c-0.98,0-1.774,0.794-1.774,1.774v0.26C349.86,303.59,350.655,304.385,351.635,304.385
						z"/>
				</g>
				<g>
					<path style="fill:#263238;" d="M359.785,347.651h28.222c0.669,0,1.289-0.41,1.625-1.077l1.793-3.549h-35.058l1.793,3.549
						C358.496,347.241,359.115,347.651,359.785,347.651z"/>
					<path style="opacity:0.4;fill:#FFFFFF;" d="M359.785,347.651h28.222c0.669,0,1.289-0.41,1.625-1.077l1.793-3.549h-35.058
						l1.793,3.549C358.496,347.241,359.115,347.651,359.785,347.651z"/>
					<path style="fill:#263238;" d="M356.782,344.714h34.227c0.98,0,1.774-0.794,1.774-1.774v-0.26c0-0.98-0.794-1.774-1.774-1.774
						h-34.227c-0.98,0-1.774,0.794-1.774,1.774v0.26C355.008,343.92,355.802,344.714,356.782,344.714z"/>
					<path style="opacity:0.1;fill:#FFFFFF;" d="M356.782,344.714h34.227c0.98,0,1.774-0.794,1.774-1.774v-0.26
						c0-0.98-0.794-1.774-1.774-1.774h-34.227c-0.98,0-1.774,0.794-1.774,1.774v0.26
						C355.008,343.92,355.802,344.714,356.782,344.714z"/>
				</g>
				<g>
					<path style="fill:#263238;" d="M364.932,387.981h28.222c0.67,0,1.289-0.41,1.625-1.077l1.793-3.549h-35.058l1.793,3.549
						C363.644,387.571,364.263,387.981,364.932,387.981z"/>
					<path style="opacity:0.4;fill:#FFFFFF;" d="M364.932,387.981h28.222c0.67,0,1.289-0.41,1.625-1.077l1.793-3.549h-35.058
						l1.793,3.549C363.644,387.571,364.263,387.981,364.932,387.981z"/>
					<path style="fill:#263238;" d="M361.93,385.044h34.227c0.98,0,1.774-0.794,1.774-1.774v-0.26c0-0.98-0.794-1.774-1.774-1.774
						H361.93c-0.98,0-1.774,0.794-1.774,1.774v0.26C360.155,384.25,360.95,385.044,361.93,385.044z"/>
					<path style="opacity:0.1;fill:#FFFFFF;" d="M361.93,385.044h34.227c0.98,0,1.774-0.794,1.774-1.774v-0.26
						c0-0.98-0.794-1.774-1.774-1.774H361.93c-0.98,0-1.774,0.794-1.774,1.774v0.26C360.155,384.25,360.95,385.044,361.93,385.044z"
						/>
				</g>
				<polygon style="fill:#263238;" points="397.174,418.066 406.052,418.066 377.184,204.936 368.305,204.936 				"/>
				<polygon style="opacity:0.7;fill:#FFFFFF;" points="397.174,418.066 406.052,418.066 377.184,204.936 368.305,204.936 				"/>
			</g>
			<g>
				<polygon style="fill:#B55B52;" points="328.775,294.84 336.613,296.486 343.567,280.955 335.737,279.32 				"/>
				<polygon style="opacity:0.2;enable-background:new    ;" points="335.737,279.32 343.565,280.964 339.588,289.84 
					331.893,287.869 				"/>
				<g>
					<path style="fill:#407BFF;" d="M338.91,293.303c0.012,0.019,0.011,0.044,0.029,0.059c0.022,0.009,0.046,0.006,0.068,0
						c0.658,0.27,1.342,0.47,2.042,0.593c0.517,0.14,1.069,0.081,1.545-0.166c0.309-0.23,0.458-0.618,0.382-0.995
						c-0.007-0.243-0.136-0.465-0.345-0.589c-0.491-0.279-1.422-0.065-2.23,0.214c0.544-0.568,0.999-1.253,0.972-1.753
						c-0.021-0.328-0.245-0.602-0.568-0.661c-0.283-0.078-0.55-0.033-0.792,0.133c-0.897,0.647-0.998,2.912-1.012,3.034
						c0,0.001,0.14-0.016,0.14-0.015c0,0.001,0,0.001,0,0.002c0,0.001-0.142,0.025-0.142,0.025c0,0.008-0.132,0.03-0.13,0.039
						C338.877,293.254,338.889,293.28,338.91,293.303z M339.448,292.788c-0.064,0.028-0.118,0.052-0.172,0.077
						c0.096-0.753,0.348-2,0.886-2.379c0.118-0.093,0.27-0.132,0.418-0.108l0.09,0.02c0.259,0.07,0.308,0.21,0.308,0.32
						C340.977,291.26,340.176,292.263,339.448,292.788z M339.528,293.193c1.007-0.446,2.423-0.91,2.91-0.63
						c0.103,0.06,0.168,0.17,0.169,0.289c0.04,0.238-0.047,0.48-0.231,0.637C341.947,293.797,340.901,293.685,339.528,293.193z"/>
				</g>
				<path style="fill:#263238;" d="M338.444,292.185l-8.882-1.337c-0.308-0.061-0.606,0.14-0.667,0.447
					c-0.001,0.003-0.001,0.006-0.002,0.009l-1.492,6.969c-0.115,0.766,0.407,1.482,1.171,1.607c3.107,0.416,4.611,0.46,8.524,1.017
					c2.4,0.355,7.109,1.283,10.466,1.251c3.357-0.031,3.236-3.349,1.812-3.631c-3.375-0.686-7.671-3.585-9.638-5.672
					C339.392,292.488,338.937,292.255,338.444,292.185z"/>
				<polygon style="fill:#263238;" points="303.964,418.066 295.086,418.066 323.954,204.936 332.833,204.936 				"/>
				<polygon style="opacity:0.4;fill:#FFFFFF;" points="303.964,418.066 295.086,418.066 323.954,204.936 332.833,204.936 				"/>
				<g>
					<path style="fill:#263238;" d="M356.796,236.528h-28.222c-0.67,0-1.289-0.41-1.625-1.077l-1.793-3.549h35.058l-1.793,3.549
						C358.085,236.118,357.466,236.528,356.796,236.528z"/>
					<path style="opacity:0.5;fill:#FFFFFF;" d="M356.796,236.528h-28.222c-0.67,0-1.289-0.41-1.625-1.077l-1.793-3.549h35.058
						l-1.793,3.549C358.085,236.118,357.466,236.528,356.796,236.528z"/>
					<path style="fill:#263238;" d="M359.799,233.591h-34.227c-0.98,0-1.774-0.794-1.774-1.774v-0.26
						c0-0.98,0.794-1.774,1.774-1.774h34.227c0.98,0,1.774,0.794,1.774,1.774v0.26C361.573,232.797,360.779,233.591,359.799,233.591
						z"/>
					<path style="opacity:0.2;fill:#FFFFFF;" d="M359.799,233.591h-34.227c-0.98,0-1.774-0.794-1.774-1.774v-0.26
						c0-0.98,0.794-1.774,1.774-1.774h34.227c0.98,0,1.774,0.794,1.774,1.774v0.26C361.573,232.797,360.779,233.591,359.799,233.591
						z"/>
				</g>
				<g>
					<path style="fill:#263238;" d="M351.648,266.992h-28.222c-0.67,0-1.289-0.41-1.625-1.077l-1.793-3.549h35.058l-1.793,3.549
						C352.937,266.582,352.318,266.992,351.648,266.992z"/>
					<path style="opacity:0.5;fill:#FFFFFF;" d="M351.648,266.992h-28.222c-0.67,0-1.289-0.41-1.625-1.077l-1.793-3.549h35.058
						l-1.793,3.549C352.937,266.582,352.318,266.992,351.648,266.992z"/>
					<path style="fill:#263238;" d="M354.651,264.055h-34.227c-0.98,0-1.774-0.794-1.774-1.774v-0.26
						c0-0.98,0.794-1.774,1.774-1.774h34.227c0.98,0,1.774,0.794,1.774,1.774v0.26C356.425,263.26,355.631,264.055,354.651,264.055z
						"/>
					<path style="opacity:0.2;fill:#FFFFFF;" d="M354.651,264.055h-34.227c-0.98,0-1.774-0.794-1.774-1.774v-0.26
						c0-0.98,0.794-1.774,1.774-1.774h34.227c0.98,0,1.774,0.794,1.774,1.774v0.26C356.425,263.26,355.631,264.055,354.651,264.055z
						"/>
				</g>
				<g>
					<path style="fill:#263238;" d="M346.501,307.321h-28.222c-0.669,0-1.289-0.41-1.625-1.077l-1.793-3.549h35.058l-1.793,3.549
						C347.79,306.911,347.171,307.321,346.501,307.321z"/>
					<path style="opacity:0.5;fill:#FFFFFF;" d="M346.501,307.321h-28.222c-0.669,0-1.289-0.41-1.625-1.077l-1.793-3.549h35.058
						l-1.793,3.549C347.79,306.911,347.171,307.321,346.501,307.321z"/>
					<path style="fill:#263238;" d="M349.504,304.385h-34.227c-0.98,0-1.774-0.794-1.774-1.774v-0.26
						c0-0.98,0.794-1.774,1.774-1.774h34.227c0.98,0,1.774,0.794,1.774,1.774v0.26C351.278,303.59,350.483,304.385,349.504,304.385z
						"/>
					<path style="opacity:0.2;fill:#FFFFFF;" d="M349.504,304.385h-34.227c-0.98,0-1.774-0.794-1.774-1.774v-0.26
						c0-0.98,0.794-1.774,1.774-1.774h34.227c0.98,0,1.774,0.794,1.774,1.774v0.26C351.278,303.59,350.483,304.385,349.504,304.385z
						"/>
				</g>
				<g>
					<path style="fill:#263238;" d="M341.353,347.651h-28.222c-0.669,0-1.289-0.41-1.625-1.077l-1.793-3.549h35.058l-1.793,3.549
						C342.642,347.241,342.023,347.651,341.353,347.651z"/>
					<path style="opacity:0.5;fill:#FFFFFF;" d="M341.353,347.651h-28.222c-0.669,0-1.289-0.41-1.625-1.077l-1.793-3.549h35.058
						l-1.793,3.549C342.642,347.241,342.023,347.651,341.353,347.651z"/>
					<path style="fill:#263238;" d="M344.356,344.714h-34.227c-0.98,0-1.774-0.794-1.774-1.774v-0.26
						c0-0.98,0.794-1.774,1.774-1.774h34.227c0.98,0,1.774,0.794,1.774,1.774v0.26C346.13,343.92,345.336,344.714,344.356,344.714z"
						/>
					<path style="opacity:0.2;fill:#FFFFFF;" d="M344.356,344.714h-34.227c-0.98,0-1.774-0.794-1.774-1.774v-0.26
						c0-0.98,0.794-1.774,1.774-1.774h34.227c0.98,0,1.774,0.794,1.774,1.774v0.26C346.13,343.92,345.336,344.714,344.356,344.714z"
						/>
				</g>
				<g>
					<path style="fill:#263238;" d="M336.206,387.981h-28.222c-0.67,0-1.289-0.41-1.625-1.077l-1.793-3.549h35.058l-1.793,3.549
						C337.495,387.571,336.875,387.981,336.206,387.981z"/>
					<path style="opacity:0.5;fill:#FFFFFF;" d="M336.206,387.981h-28.222c-0.67,0-1.289-0.41-1.625-1.077l-1.793-3.549h35.058
						l-1.793,3.549C337.495,387.571,336.875,387.981,336.206,387.981z"/>
					<path style="fill:#263238;" d="M339.208,385.044h-34.227c-0.98,0-1.774-0.794-1.774-1.774v-0.26
						c0-0.98,0.794-1.774,1.774-1.774h34.227c0.98,0,1.774,0.794,1.774,1.774v0.26C340.983,384.25,340.188,385.044,339.208,385.044z
						"/>
					<path style="opacity:0.2;fill:#FFFFFF;" d="M339.208,385.044h-34.227c-0.98,0-1.774-0.794-1.774-1.774v-0.26
						c0-0.98,0.794-1.774,1.774-1.774h34.227c0.98,0,1.774,0.794,1.774,1.774v0.26C340.983,384.25,340.188,385.044,339.208,385.044z
						"/>
				</g>
				<polygon style="fill:#263238;" points="338.237,418.066 329.359,418.066 358.228,204.936 367.106,204.936 				"/>
				<polygon style="opacity:0.7;fill:#FFFFFF;" points="338.237,418.066 329.359,418.066 358.228,204.936 367.106,204.936 				"/>
				<g>
					<path style="fill:#263238;" d="M378.606,206.023h-56.263c-0.67,0-1.289-0.41-1.625-1.077l-1.793-3.549h63.1l-1.793,3.549
						C379.895,205.613,379.276,206.023,378.606,206.023z"/>
					<path style="opacity:0.5;fill:#FFFFFF;" d="M378.606,206.023h-56.263c-0.67,0-1.289-0.41-1.625-1.077l-1.793-3.549h63.1
						l-1.793,3.549C379.895,205.613,379.276,206.023,378.606,206.023z"/>
					<path style="fill:#263238;" d="M381.609,203.087H319.34c-0.98,0-1.774-0.794-1.774-1.774v-0.26c0-0.98,0.794-1.774,1.774-1.774
						h62.269c0.98,0,1.774,0.794,1.774,1.774v0.26C383.383,202.292,382.589,203.087,381.609,203.087z"/>
					<path style="opacity:0.2;fill:#FFFFFF;" d="M381.609,203.087H319.34c-0.98,0-1.774-0.794-1.774-1.774v-0.26
						c0-0.98,0.794-1.774,1.774-1.774h62.269c0.98,0,1.774,0.794,1.774,1.774v0.26C383.383,202.292,382.589,203.087,381.609,203.087
						z"/>
				</g>
			</g>
		</g>
		<g>
			<g>
				<path style="fill:#263238;" d="M233.796,169.969l24.649,5.423c0.577,0.127,1.147-0.238,1.274-0.814l0,0
					c0.127-0.577-0.238-1.147-0.814-1.274l-24.649-5.423L233.796,169.969z"/>
				<path style="fill:#407BFF;" d="M234.256,167.88c0,0-2.702-1.296-3.856-3.877l-1.545,5.182c0,0,2.503,1.513,4.942,0.783
					L234.256,167.88z"/>
				<path style="opacity:0.2;fill:#FFFFFF;" d="M234.256,167.88c0,0-2.702-1.296-3.856-3.877l-1.545,5.182
					c0,0,2.503,1.513,4.942,0.783L234.256,167.88z"/>
				<path style="opacity:0.2;fill:#FFFFFF;" d="M232.042,166.28c1.102,1.064,2.214,1.601,2.214,1.601l-0.459,2.088
					c-1.201,0.359-2.416,0.174-3.341-0.106C231.007,168.679,231.544,167.488,232.042,166.28z"/>
				<path style="opacity:0.2;fill:#FFFFFF;" d="M229.725,168.249c0.365-1.156,0.773-2.293,1.1-3.457
					c1.283,2.054,3.431,3.089,3.431,3.089l-0.459,2.088c-1.776,0.531-3.581-0.126-4.434-0.522
					C229.481,169.046,229.6,168.646,229.725,168.249z"/>
			</g>
			<polygon style="fill:#B55B52;" points="296.021,381.034 303.948,379.891 305.153,362.918 297.237,364.068 			"/>
			<polygon style="opacity:0.2;enable-background:new    ;" points="297.237,364.068 305.154,362.927 304.463,372.629 
				296.559,373.416 			"/>
			<g>
				<path style="fill:#407BFF;" d="M305.483,376.361c0.016,0.015,0.021,0.04,0.042,0.05c0.023,0.003,0.046-0.005,0.066-0.016
					c0.702,0.11,1.414,0.145,2.124,0.101c0.536,0.016,1.058-0.17,1.464-0.521c0.247-0.296,0.302-0.708,0.14-1.057
					c-0.063-0.234-0.24-0.421-0.473-0.492c-0.543-0.157-1.398,0.268-2.119,0.728c0.397-0.679,0.68-1.451,0.537-1.931
					c-0.097-0.314-0.379-0.528-0.707-0.51c-0.293-0.01-0.542,0.096-0.739,0.314c-0.722,0.838-0.292,3.065-0.277,3.187
					c0,0.001,0.132-0.048,0.133-0.047c0,0.001,0,0.001,0.001,0.002c0,0.001-0.132,0.057-0.132,0.057
					c0.002,0.008-0.121,0.06-0.118,0.068C305.439,376.321,305.457,376.345,305.483,376.361z M305.886,375.736
					c-0.055,0.042-0.103,0.078-0.149,0.114c-0.082-0.754-0.127-2.026,0.307-2.52c0.093-0.118,0.232-0.192,0.382-0.203l0.092-0.001
					c0.268,0.008,0.349,0.132,0.374,0.239C307.017,373.893,306.471,375.055,305.886,375.736z M306.058,376.111
					c0.876-0.668,2.144-1.45,2.683-1.291c0.115,0.034,0.203,0.126,0.231,0.242c0.095,0.222,0.066,0.478-0.076,0.673
					C308.551,376.135,307.508,376.269,306.058,376.111z"/>
			</g>
			<path style="fill:#263238;" d="M304.77,375.383l-8.949,0.768c-0.313,0.013-0.557,0.277-0.544,0.59c0,0.003,0,0.006,0,0.009
				l0.173,7.125c0.066,0.772,0.741,1.347,1.513,1.289c3.118-0.319,4.591-0.627,8.527-0.996c2.416-0.214,7.212-0.408,10.469-1.221
				c3.257-0.812,2.367-4.01,0.916-3.953c-3.442,0.119-8.295-1.7-10.694-3.271C305.761,375.457,305.265,375.336,304.77,375.383z"/>
			<g>
				<path style="fill:#407BFF;" d="M280.224,232.25c0,0,0,0,0,0.01c0.05,0.22,1.51,6.95,3.43,16.58c0.1,0.55,0.21,1.12,0.32,1.69
					c0.9,4.58,1.88,9.73,2.85,15.11c1.19,6.53,2.36,13.4,3.35,19.97c1.42,9.49,2.46,18.34,2.61,24.66
					c0.47,20.77,1.33,61.77,1.33,61.77l11.19-1.76c0,0,6.18-43.72,6.1-64.89c-0.02-5.7-0.63-13.96-1.5-22.89
					c-1.19-12.16-2.85-25.57-4.16-35.5c-0.13-1.01-0.26-1.99-0.39-2.93c-0.95-7.23-1.64-12.01-1.64-12.01l-12.67,0.11
					L280.224,232.25z"/>
			</g>
			<g style="opacity:0.2;">
				<path d="M280.224,232.25c0,0,0,0,0,0.01c0.05,0.22,1.51,6.95,3.43,16.58c0.1,0.55,0.21,1.12,0.32,1.69
					c0.9,4.58,1.88,9.73,2.85,15.11c1.19,6.53,2.36,13.4,3.35,19.97c1.42,9.49,2.46,18.34,2.61,24.66
					c0.47,20.77,1.33,61.77,1.33,61.77l11.19-1.76c0,0,6.18-43.72,6.1-64.89c-0.02-5.7-0.63-13.96-1.5-22.89
					c-1.19-12.16-2.85-25.57-4.16-35.5c-0.13-1.01-0.26-1.99-0.39-2.93c-0.95-7.23-1.64-12.01-1.64-12.01l-12.67,0.11
					L280.224,232.25z"/>
			</g>
			<path style="opacity:0.2;" d="M292.555,240.51c0,0,8.98,34.32,17.35,41.99c-1.19-12.16-2.85-25.57-4.16-35.5
				c-0.13-1.01-0.26-1.99-0.39-2.93C301.885,242.1,297.665,240.8,292.555,240.51z"/>
			<path style="fill:#407BFF;" d="M305.968,249.599c0.493-0.108,0.764-0.182,0.764-0.182l40.357-5.044l-15.742,40.102l12.426,3.119
				c0,0,31.406-53.084,20.015-60.839c-11.391-7.756-46.693,0.809-46.693,0.809l-1.388-10.643l-35.111,2.615
				C274.942,254.623,301.121,250.621,305.968,249.599z"/>
			<path style="opacity:0.2;" d="M305.968,249.599c0.493-0.108,0.764-0.182,0.764-0.182l40.357-5.044l-15.742,40.102l12.426,3.119
				c0,0,31.406-53.084,20.015-60.839c-11.391-7.756-46.693,0.809-46.693,0.809l-1.388-10.643l-35.111,2.615
				C274.942,254.623,301.121,250.621,305.968,249.599z"/>
			<g>
				<path style="fill:#E4897B;" d="M278.247,173.794c-1.554,4.71-3.272,9.227-5.248,13.77c-1.001,2.26-2.036,4.521-3.237,6.773
					c-0.599,1.128-1.228,2.258-1.939,3.406c-0.717,1.154-1.485,2.294-2.619,3.568c-0.304,0.326-0.612,0.65-1.025,1.008
					c-0.398,0.346-0.878,0.731-1.606,1.12c-0.175,0.094-0.362,0.187-0.604,0.282c-0.233,0.091-0.425,0.172-0.782,0.26
					c-0.634,0.169-1.312,0.213-1.882,0.163c-1.182-0.102-2.006-0.48-2.629-0.821c-1.198-0.704-1.84-1.383-2.409-2.012
					c-0.559-0.634-1.003-1.238-1.409-1.832c-1.59-2.358-2.658-4.635-3.688-6.936c-1.998-4.603-3.536-9.21-4.801-13.99l4.524-1.742
					c2.26,4.141,4.555,8.344,6.947,12.274c1.191,1.947,2.462,3.879,3.72,5.386c0.312,0.366,0.625,0.696,0.893,0.931
					c0.257,0.237,0.516,0.372,0.369,0.252c-0.095-0.061-0.345-0.222-0.927-0.283c-0.273-0.023-0.646-0.007-0.992,0.081
					c-0.208,0.062-0.264,0.076-0.358,0.112l-0.2,0.086c-0.201,0.102-0.203,0.117-0.161,0.056l0.226-0.283
					c0.425-0.553,0.955-1.443,1.453-2.354c0.503-0.922,0.991-1.916,1.462-2.934c0.933-2.045,1.844-4.173,2.699-6.335
					c1.723-4.31,3.38-8.781,4.954-13.141L278.247,173.794z"/>
			</g>
			<g>
				<path style="fill:#407BFF;" d="M271.666,167.647c-4.71,1.52-10.398,20.402-10.398,20.402l10.398,8.328l8.313-13.546
					L271.666,167.647z"/>
				<path style="opacity:0.7;fill:#FFFFFF;" d="M279.98,182.83l-1.01,1.65l-5.52,9l-1.78,2.9l-10.4-8.33c0,0,5.69-18.88,10.4-20.4
					L279.98,182.83z"/>
				<path style="opacity:0.2;" d="M278.97,184.48l-5.52,9c0.13-6.27,3.13-13.21,3.13-13.21
					C277.67,181.55,278.45,182.99,278.97,184.48z"/>
			</g>
			<g>
				<g>
					<polygon style="fill:#263238;" points="281.114,222.958 280.37,223.016 280.398,220.593 281.059,220.542 					"/>
					<polygon style="fill:#263238;" points="308.708,220.814 293.732,221.978 293.666,219.568 308.582,218.414 					"/>
					<polygon style="fill:#263238;" points="309.737,218.325 316.07,217.836 316.297,220.224 309.887,220.723 					"/>
					<polygon style="fill:#263238;" points="282.216,220.453 292.514,219.657 292.557,222.069 282.293,222.867 					"/>
				</g>
				<g style="opacity:0.2;">
					<polygon style="fill:#FFFFFF;" points="281.114,222.958 280.37,223.016 280.398,220.593 281.059,220.542 					"/>
					<polygon style="fill:#FFFFFF;" points="308.708,220.814 293.732,221.978 293.666,219.568 308.582,218.414 					"/>
					<polygon style="fill:#FFFFFF;" points="309.737,218.325 316.07,217.836 316.297,220.224 309.887,220.723 					"/>
					<polygon style="fill:#FFFFFF;" points="282.216,220.453 292.514,219.657 292.557,222.069 282.293,222.867 					"/>
				</g>
			</g>
			<path style="fill:#263238;" d="M280.628,145.619c0.047,0.548-0.206,1.017-0.565,1.048c-0.358,0.03-0.687-0.389-0.733-0.938
				c-0.046-0.548,0.206-1.017,0.565-1.048C280.253,144.651,280.582,145.071,280.628,145.619z"/>
			<path style="fill:#DE5753;" d="M280.472,146.632c0,0-0.978,3.269-2.221,4.911c1.047,0.823,2.661,0.269,2.661,0.269
				L280.472,146.632z"/>
			<path style="fill:#263238;" d="M282.377,142.405c0.075-0.022,0.143-0.072,0.186-0.144c0.092-0.153,0.042-0.352-0.111-0.443
				c-1.534-0.919-2.881-0.281-2.939-0.253c-0.16,0.078-0.227,0.271-0.149,0.432c0.078,0.16,0.273,0.225,0.431,0.149l0,0
				c0.044-0.021,1.101-0.507,2.325,0.225C282.2,142.42,282.293,142.429,282.377,142.405z"/>
			<path style="fill:#E4897B;" d="M299.427,150.536c-1.434,4.879-3.249,13.893-0.08,17.53c0,0-1.825,4.915-11.058,4.06
				c-10.152-0.94-4.385-5.489-4.385-5.489c5.663-0.81,5.901-4.934,5.293-8.885L299.427,150.536z"/>
			<path style="fill:#E4897B;" d="M298.814,142.905c0.158,6.768,0.594,10.721-2.513,14.465c-4.674,5.632-13.246,3.254-15.423-3.33
				c-1.959-5.926-1.889-15.999,4.474-19.237C291.622,131.612,298.656,136.137,298.814,142.905z"/>
			<path style="fill:#263238;" d="M298.934,153.981c-2.22,2.309-13.443,0.059-13.713-8.261c0,0-5.012-3.37-6.035-8.409
				c-1.023-5.04,1.803-7.904,5.702-7.902c3.438,0.002,3.854,1.762,3.854,1.762s15.474-2.625,14.064,4.392
				C310.841,140.416,301.704,151.1,298.934,153.981z"/>
			<path style="fill:#E4897B;" d="M288.215,146.298c0.056,1.772-0.611,3.506-1.496,4.68c-1.332,1.767-2.97,0.893-3.414-1.071
				c-0.4-1.767-0.189-4.815,1.54-5.881C286.547,142.977,288.151,144.272,288.215,146.298z"/>
			<g>
				<polygon style="fill:#E4897B;" points="243.151,166.569 236.948,171.067 240.553,176.664 248.355,171.651 				"/>
				<path style="fill:#E4897B;" d="M250.365,179.911l-2.009-8.26l-7.803,5.013c0,0,3.175,6.921,6.655,6.235L250.365,179.911z"/>
			</g>
			<g>
				<path style="fill:#407BFF;" d="M316.683,192.894c0.452,7.685,0.681,18.334,0.405,27.288l-37.912,2.734
					c0,0-1.874-33.052-7.511-55.27c0,0,24.09-7.084,41.801-4.683c0,0,0.878,5.031,1.787,13.167
					C315.772,180.808,316.3,186.521,316.683,192.894z"/>
				<path style="opacity:0.7;fill:#FFFFFF;" d="M316.683,192.894c0.452,7.685,0.681,18.334,0.405,27.288l-37.912,2.734
					c0,0-1.874-33.052-7.511-55.27c0,0,24.09-7.084,41.801-4.683c0,0,0.878,5.031,1.787,13.167
					C315.772,180.808,316.3,186.521,316.683,192.894z"/>
				<path style="opacity:0.2;" d="M316.683,192.894c-6.788-6.486-9.495-17.982-9.495-17.982c2.925-0.257,5.636,0.232,8.065,1.219
					C315.772,180.808,316.3,186.521,316.683,192.894z"/>
				<path style="fill:#407BFF;" d="M279.621,165.664c0,0,0-2.7,2.717-3.943c4.584-2.096,17.368-3.437,20.148,0.746
					C302.486,162.467,287.255,179.582,279.621,165.664z"/>
				<path style="opacity:0.5;fill:#FFFFFF;" d="M279.621,165.664c0,0,0-2.7,2.717-3.943c4.584-2.096,17.368-3.437,20.148,0.746
					C302.486,162.467,287.255,179.582,279.621,165.664z"/>
			</g>
			<g>
				<path style="fill:#E4897B;" d="M317.473,166.953c2.524,3.801,5.152,7.698,7.787,11.41c1.333,1.845,2.675,3.677,4.047,5.33
					c0.684,0.817,1.383,1.609,2.009,2.228c0.145,0.131,0.317,0.316,0.438,0.409l0.193,0.171l0.132,0.105
					c0.17,0.121-0.08-0.009,0.14,0.116l0.707,0.314c1.994,0.841,4.218,1.713,6.392,2.535l6.592,2.526
					c4.41,1.68,8.815,3.442,13.189,5.277l-1.372,4.65c-4.7-0.855-9.353-1.834-13.982-2.961c-2.316-0.559-4.626-1.142-6.94-1.766
					c-2.322-0.653-4.6-1.246-7.03-2.087l-0.944-0.337c-0.317-0.117-1.115-0.485-1.433-0.7l-0.611-0.379l-0.515-0.365
					c-0.362-0.251-0.618-0.478-0.93-0.722c-1.148-0.947-2.076-1.881-2.968-2.827c-1.774-1.884-3.35-3.783-4.858-5.721
					c-3.02-3.878-5.725-7.807-8.312-11.971L317.473,166.953z"/>
			</g>
			<g>
				<polygon style="fill:#E4897B;" points="372.479,196.432 371.366,204.012 364.736,203.411 365.564,194.173 				"/>
				<path style="fill:#E4897B;" d="M357.313,196.219l8.251-2.046l-0.828,9.237c0,0-7.604,0.392-8.609-3.01L357.313,196.219z"/>
			</g>
			<path style="fill:#407BFF;" d="M313.465,162.964c4.674,0.836,15.042,19.862,15.042,19.862l-10.743,8.213
				c0,0-10.822-10.065-11.437-15.95C305.22,164.505,313.465,162.964,313.465,162.964z"/>
			<path style="opacity:0.7;fill:#FFFFFF;" d="M313.465,162.964c4.674,0.836,15.042,19.862,15.042,19.862l-10.743,8.213
				c0,0-10.822-10.065-11.437-15.95C305.22,164.505,313.465,162.964,313.465,162.964z"/>
		</g>
	</g>
</g>
</svg>
